HIERARCHY
ROOT Hips
{
	OFFSET 0.00000 0.00000 0.00000
	CHANNELS 6 Xposition Yposition Zposition Zrotation Yrotation Xrotation 
	JOINT RightUpLegDummy
	{
		OFFSET 0 0 0
		CHANNELS 3 Zrotation Yrotation Xrotation
		JOINT RightUpLeg
		{
			OFFSET -3.52197 -3.41223 0.04002
			CHANNELS 3 Zrotation Yrotation Xrotation
			JOINT RightLeg
			{
				OFFSET 0.00006 -17.42390 1.60435
				CHANNELS 3 Zrotation Yrotation Xrotation
				JOINT RightFoot
				{
					OFFSET 0.06153 -16.50078 -1.63901
					CHANNELS 3 Zrotation Yrotation Xrotation
					JOINT RightToes
					{
						OFFSET 0.00298 -1.73825 3.34613
						CHANNELS 3 Zrotation Yrotation Xrotation
						End Site
						{
							OFFSET 0.00480 -0.05416 3.85043
						}
					}
				}
			}
		}
	}
	JOINT SpineDummy
	{
		OFFSET 0 0 0
		CHANNELS 3 Zrotation Yrotation Xrotation
		JOINT Spine
		{
			OFFSET 0.00000 4.68130 0.00000
			CHANNELS 3 Zrotation Yrotation Xrotation
			JOINT Spine1
			{
				OFFSET -0.00000 10.10138 0.05002
				CHANNELS 3 Zrotation Yrotation Xrotation
				JOINT HEadDummy
				{
					OFFSET 0 0 0
					CHANNELS 3 Zrotation Yrotation Xrotation
					JOINT Head
					{
						OFFSET -0.00000 3.43865 0.00438
						CHANNELS 3 Zrotation Yrotation Xrotation
						End Site
						{
							OFFSET -0.11417 5.02924 0.98962
						}
					}
				}
				JOINT LeftShoulder1Dummy
				{
					OFFSET 0 0 0
					CHANNELS 3 Zrotation Yrotation Xrotation
					JOINT LeftShoulder1
					{
						OFFSET 3.53937 -0.14262 -0.08662
						CHANNELS 3 Zrotation Yrotation Xrotation
						JOINT LeftArm
						{
							OFFSET 4.04833 -0.00133 0.12681
							CHANNELS 3 Zrotation Yrotation Xrotation
							JOINT LeftForeArm
							{
								OFFSET 10.33880 -0.01036 -0.55515
								CHANNELS 3 Zrotation Yrotation Xrotation
								JOINT LeftHand
								{
									OFFSET 8.69677 0.07543 0.40060
									CHANNELS 3 Zrotation Yrotation Xrotation
									End Site
									{
										OFFSET 5.28377 -0.21905 0.59205
									}
								}
							}
						}
					}
				}
				JOINT RightShoulderDummy
				{
					OFFSET 0 0 0
					CHANNELS 3 Zrotation Yrotation Xrotation
					JOINT RightShoulder
					{
						OFFSET -3.53937 -0.14262 -0.08660
						CHANNELS 3 Zrotation Yrotation Xrotation
						JOINT RightArm
						{
							OFFSET -4.04833 -0.00133 0.12683
							CHANNELS 3 Zrotation Yrotation Xrotation
							JOINT RightForeArm
							{
								OFFSET -10.37987 -0.01039 -0.55511
								CHANNELS 3 Zrotation Yrotation Xrotation
								JOINT RightHand
								{
									OFFSET -8.67398 0.07538 0.40058
									CHANNELS 3 Zrotation Yrotation Xrotation
									End Site
									{
										OFFSET -5.24810 -0.21916 0.59204
									}
								}
							}
						}
					}
				}
			}
		}
	}
	JOINT LeftUpLegDummy
	{
		OFFSET 0 0 0
		CHANNELS 3 Zrotation Yrotation Xrotation
		JOINT LeftUpLeg
		{
			OFFSET 3.52197 -3.41223 0.04002
			CHANNELS 3 Zrotation Yrotation Xrotation
			JOINT LeftLeg
			{
				OFFSET -0.00012 -17.42399 1.60337
				CHANNELS 3 Zrotation Yrotation Xrotation
				JOINT LeftFoot
				{
					OFFSET -0.09972 -16.50070 -1.63802
					CHANNELS 3 Zrotation Yrotation Xrotation
					JOINT LeftToes
					{
						OFFSET -0.01575 -1.73823 3.34611
						CHANNELS 3 Zrotation Yrotation Xrotation
						End Site
						{
							OFFSET 0.03150 -0.01868 3.85031
						}
					}
				}
			}
		}
	}
}
MOTION
Frames: 12
Frame Time: 0.033333
7.8950 39.2918 78.5528 -178.8640 -45.3111 175.3140 0.0000 0.0000 0.0000 -0.1939 3.2598 -0.4724 -2.4258 -1.8573 16.8252 -4.4254 -0.2938 -17.2707 0.0000 -0.0000 -0.0000 0.0000 0.0000 0.0000 -3.4195 -2.4264 7.8472 4.8361 -3.4313 -1.5800 -0.0000 0.0000 -0.0000 6.8073 -15.4825 -12.0847 -0.0000 0.0000 -0.0000 -34.1750 -3.1844 2.6889 -38.6102 -11.4149 -24.1803 -6.9734 4.9035 56.4328 15.2370 -3.6680 -1.1620 -0.0000 0.0000 -0.0000 33.8100 4.9641 3.3718 41.4296 13.5245 -5.5628 11.6975 8.3178 15.9651 -11.4496 1.2175 -0.6412 0.0000 0.0000 0.0000 14.2586 -7.9667 -17.5521 0.3762 -1.1132 14.6840 5.4816 0.4211 -17.8873 0.0000 0.0000 -0.0000
6.7902 39.2680 78.5410 -179.6830 -42.5203 175.7520 0.0000 0.0000 0.0000 -2.0840 4.7300 0.8854 -2.0072 -0.7500 16.0784 -2.9830 -0.2048 -16.8301 0.0000 -0.0000 -0.0000 0.0000 0.0000 0.0000 -3.5981 -1.7491 7.6238 4.2374 -2.6271 -1.3119 -0.0000 0.0000 -0.0000 6.9978 -14.9843 -12.2962 -0.0000 0.0000 -0.0000 -34.2171 -3.1871 2.6864 -38.9229 -9.2468 -24.5666 -6.8907 4.9026 56.4821 14.7133 -3.4655 -1.0963 -0.0000 0.0000 -0.0000 33.9786 4.9906 3.3968 40.9605 13.6514 -6.6133 11.8863 7.5085 17.0212 -11.6292 1.3057 -0.6597 0.0000 0.0000 0.0000 12.8148 -2.6457 -15.9200 0.3712 -7.5583 10.9625 4.8964 0.4010 -18.1592 0.0000 0.0000 -0.0000
5.5234 39.1603 78.5502 179.5720 -39.9001 176.1090 0.0000 0.0000 0.0000 -4.3750 6.0396 1.9752 -1.4087 0.6265 15.9114 -0.3284 -0.0780 -16.8225 0.0000 -0.0000 -0.0000 0.0000 0.0000 0.0000 -3.3253 -1.1896 7.2357 3.3819 -1.8804 -1.1559 -0.0000 0.0000 -0.0000 6.8223 -14.5638 -12.1911 -0.0000 0.0000 -0.0000 -34.3608 -3.1678 2.6877 -39.3208 -7.1946 -24.9052 -6.8018 4.8897 56.8850 14.1389 -3.3836 -1.0423 -0.0000 0.0000 -0.0000 33.9134 4.9688 3.3825 40.7904 13.3578 -7.6565 11.9447 6.8839 17.9681 -12.0355 1.2989 -0.6825 0.0000 0.0000 0.0000 11.7599 0.8784 -14.4058 1.0677 -6.6884 9.6687 4.8647 0.4188 -18.5757 0.0000 0.0000 -0.0000
4.1278 39.0140 78.5800 179.1640 -37.5984 176.0700 0.0000 0.0000 0.0000 -6.6908 7.2862 3.4664 -0.8770 1.6805 15.2222 2.3678 0.0499 -16.7574 0.0000 -0.0000 -0.0000 0.0000 0.0000 0.0000 -2.5165 -0.7859 6.7945 2.4137 -1.2635 -1.0133 -0.0000 0.0000 -0.0000 6.2835 -14.4089 -11.6391 -0.0000 0.0000 -0.0000 -34.3905 -3.1482 2.6891 -40.1301 -5.3830 -25.3713 -6.5658 4.8714 57.4802 13.7281 -3.5044 -1.0244 -0.0000 0.0000 -0.0000 33.7431 4.9303 3.3526 40.6156 12.5344 -8.5143 11.8293 6.7948 18.1310 -12.1029 1.1017 -0.6675 0.0000 0.0000 0.0000 11.0732 2.6278 -12.8461 2.1439 -1.2199 10.1507 4.5166 0.3675 -17.9002 0.0000 0.0000 -0.0000
2.6986 38.8355 78.6194 178.4640 -35.9114 175.9190 0.0000 0.0000 0.0000 -9.2312 9.3376 5.0682 -0.4916 1.3163 14.8852 4.9626 0.1692 -16.6569 0.0000 -0.0000 -0.0000 0.0000 0.0000 0.0000 -2.6381 -0.6333 6.6636 2.3736 -1.0832 -0.9793 -0.0000 0.0000 -0.0000 5.6022 -14.2004 -10.6914 -0.0000 0.0000 -0.0000 -34.5956 -3.1162 2.6896 -41.1196 -3.7463 -25.7909 -6.4202 4.8758 57.3886 13.4476 -3.5429 -1.0070 -0.0000 0.0000 -0.0000 33.8112 4.9372 3.3612 39.9082 11.5080 -9.3377 11.6215 7.1464 17.3621 -11.5358 0.9757 -0.6238 0.0000 0.0000 0.0000 9.9262 4.0116 -11.7118 2.8220 3.2147 12.2639 2.9926 0.2146 -15.8014 0.0000 0.0000 -0.0000
1.3335 38.6461 78.6835 176.8410 -35.3311 176.0550 0.0000 0.0000 0.0000 -12.2539 11.3250 5.7547 -0.4554 -0.7771 17.1805 7.4806 0.2567 -16.2363 0.0000 -0.0000 -0.0000 0.0000 0.0000 0.0000 -4.8624 -0.8111 7.2934 3.8468 -1.5434 -1.3337 -0.0000 0.0000 -0.0000 5.2597 -13.7532 -9.8692 -0.0000 0.0000 -0.0000 -35.2252 -3.0448 2.7026 -41.6732 -2.8023 -26.1420 -6.3157 4.8846 57.1602 13.0810 -3.4514 -0.9688 -0.0000 0.0000 -0.0000 34.2326 5.0004 3.4226 38.8727 10.3920 -10.8789 11.2575 7.6122 16.2815 -10.9527 1.1497 -0.6068 0.0000 0.0000 0.0000 7.7801 4.1947 -11.2102 2.8158 5.0342 15.2915 0.9366 0.0969 -13.4426 0.0000 0.0000 -0.0000
0.0941 38.4688 78.8022 174.9390 -35.6016 176.2300 0.0000 0.0000 0.0000 -15.0336 10.4295 4.6062 -2.1563 -3.3656 23.5453 8.4528 0.1549 -14.1272 0.0000 -0.0000 -0.0000 0.0000 0.0000 0.0000 -7.7389 -1.0184 8.7797 5.6206 -2.1483 -2.1131 -0.0000 0.0000 -0.0000 5.5269 -13.6352 -9.6798 -0.0000 0.0000 -0.0000 -35.6666 -2.9818 2.7060 -41.7458 -3.3392 -26.4832 -5.9522 4.8552 58.0986 12.6632 -3.4590 -0.9373 -0.0000 0.0000 -0.0000 34.6513 5.0568 3.4815 38.5734 8.7950 -13.6513 10.5476 8.1515 15.2433 -11.2704 1.3327 -0.6414 0.0000 0.0000 0.0000 4.9423 3.1493 -11.0510 2.7620 5.2144 18.4373 -0.5034 0.0679 -12.2842 0.0000 0.0000 -0.0000
-1.0357 38.3261 78.9598 174.0790 -35.5816 175.7550 0.0000 0.0000 0.0000 -16.3040 9.7179 1.6407 -6.5133 -7.9400 32.7023 6.3076 -0.1390 -9.0701 0.0000 -0.0000 -0.0000 0.0000 0.0000 0.0000 -8.6824 -0.8730 10.5492 5.9743 -2.1791 -2.8698 -0.0000 0.0000 -0.0000 6.0783 -14.3103 -9.9242 -0.0000 0.0000 -0.0000 -35.2241 -2.9948 2.6819 -41.8236 -5.1050 -26.4357 -5.6382 4.8195 59.2019 12.5342 -3.5513 -0.9368 -0.0000 0.0000 -0.0000 34.7042 5.0606 3.4877 39.5207 6.7230 -16.8676 9.6609 8.7064 13.8082 -12.4216 1.1324 -0.6880 0.0000 0.0000 0.0000 2.7750 2.1467 -10.6866 3.0209 5.2374 21.3379 -1.2636 0.0607 -12.6899 0.0000 0.0000 -0.0000
-2.0920 38.2513 79.0994 174.4920 -34.7820 174.5540 0.0000 0.0000 0.0000 -15.7530 9.8035 -2.2500 -11.2490 -10.4170 41.6274 2.4378 -0.1937 -3.0230 0.0000 -0.0000 -0.0000 0.0000 0.0000 0.0000 -7.7067 -0.5271 12.0013 5.2580 -1.7740 -3.2626 -0.0000 0.0000 -0.0000 6.2605 -15.2048 -9.9447 -0.0000 0.0000 -0.0000 -34.3663 -3.0513 2.6481 -41.8921 -6.7405 -25.3979 -6.2415 4.8745 57.4548 12.9273 -3.5161 -0.9636 -0.0000 0.0000 -0.0000 34.5264 5.0461 3.4663 40.7160 5.0207 -19.2483 9.2090 8.5452 12.4145 -13.0737 0.8023 -0.6908 0.0000 0.0000 0.0000 1.8932 2.4573 -9.8001 3.1243 5.2853 23.5328 -1.8561 0.0439 -13.7011 0.0000 0.0000 -0.0000
-3.1167 38.2571 79.1706 175.2330 -34.2105 173.3790 0.0000 0.0000 0.0000 -14.2376 9.7005 -5.8978 -11.6718 -8.6438 47.8395 0.4008 -0.0475 0.0270 0.0000 -0.0000 -0.0000 0.0000 0.0000 0.0000 -6.9973 -0.5231 12.9396 5.2806 -1.8119 -3.3982 -0.0000 0.0000 -0.0000 5.7814 -15.4453 -9.4968 -0.0000 0.0000 -0.0000 -34.1046 -3.0563 2.6326 -41.3413 -7.4076 -23.5759 -7.8239 5.0316 52.2291 13.7438 -3.4441 -1.0191 -0.0000 0.0000 -0.0000 34.4163 5.0452 3.4569 41.0134 4.2800 -20.1155 9.4112 7.0674 12.6719 -12.1638 0.9391 -0.6544 0.0000 0.0000 0.0000 1.5825 3.4830 -8.5471 2.5638 4.9377 24.6063 -2.3984 0.0233 -14.3413 0.0000 0.0000 -0.0000
-4.1250 38.3064 79.1588 175.7960 -34.8829 172.6500 0.0000 0.0000 0.0000 -12.3571 8.4200 -8.7667 -7.7658 -4.9175 51.1314 1.1774 -0.1122 -0.3443 0.0000 -0.0000 -0.0000 0.0000 0.0000 0.0000 -7.5099 -1.0979 13.4455 6.5943 -2.6744 -3.5092 -0.0000 0.0000 -0.0000 5.0532 -15.1014 -8.9009 -0.0000 0.0000 -0.0000 -34.3842 -2.9938 2.6260 -40.1655 -7.7887 -21.9919 -9.3106 5.1804 46.7365 14.5774 -3.5441 -1.0951 -0.0000 0.0000 -0.0000 34.4153 5.0391 3.4561 40.6953 3.9483 -19.8024 9.7133 4.9937 15.0813 -10.5205 1.5914 -0.6189 0.0000 0.0000 0.0000 1.1613 4.0221 -7.3113 1.4970 3.9951 24.7992 -3.1156 0.0019 -14.4603 0.0000 0.0000 -0.0000
-5.1164 38.3496 79.0754 176.4320 -36.3596 172.1570 0.0000 0.0000 0.0000 -10.0861 6.6230 -11.0784 -4.1747 -2.4234 52.1451 3.0494 -0.2642 -1.6871 0.0000 -0.0000 -0.0000 0.0000 0.0000 0.0000 -8.2542 -1.9145 13.5477 8.0769 -3.8060 -3.5246 -0.0000 0.0000 -0.0000 4.6841 -14.9226 -8.3727 -0.0000 0.0000 -0.0000 -34.2989 -2.9306 2.5950 -39.0762 -8.9629 -21.1352 -9.9941 5.2509 43.8294 15.0718 -3.6328 -1.1444 -0.0000 0.0000 -0.0000 34.4482 5.0387 3.4565 40.6875 3.0632 -19.8486 9.6346 3.5220 18.1805 -9.9746 2.0271 -0.6204 0.0000 0.0000 0.0000 0.7434 4.1844 -6.2635 0.3340 2.5252 24.7417 -4.3556 -0.0276 -14.3332 0.0000 0.0000 -0.0000
